<svg xmlns="http://www.w3.org/2000/svg" xmlns:xlink="http://www.w3.org/1999/xlink" viewBox="0 0 400 400" width="400" height="400" preserveAspectRatio="xMidYMid meet" style="width: 100%; height: 100%; transform: translate3d(0px, 0px, 0px); content-visibility: visible;"><defs><clipPath id="__lottie_element_2"><rect width="400" height="400" x="0" y="0"></rect></clipPath></defs><g clip-path="url(#__lottie_element_2)"><g transform="matrix(1,0,0,1,200,200)" opacity="1" style="display: block;"><g opacity="1" transform="matrix(1,0,0,1,0,0)"><path fill="rgb(2,11,25)" fill-opacity="1" d=" M0.8,-105.53 C-16.97,-105.77 -34.1,-98.95 -46.84,-86.57 C-59.58,-74.18 -66.88,-57.24 -67.13,-39.47 C-67.58,-7.39 -74.72,12.44 -81.21,23.95 C-84.46,29.73 -87.61,33.5 -89.79,35.74 C-90.88,36.86 -91.74,37.6 -92.25,38.02 C-92.51,38.23 -92.68,38.36 -92.76,38.41 C-92.76,38.41 -92.79,38.43 -92.79,38.43 C-96.25,40.74 -97.83,45.03 -96.67,49.04 C-95.51,53.09 -91.83,55.9 -87.61,55.96 C-87.61,55.96 84.65,58.38 84.65,58.38 C88.87,58.44 92.63,55.73 93.91,51.71 C95.17,47.73 93.72,43.4 90.32,40.99 C90.32,40.99 90.29,40.97 90.29,40.97 C90.22,40.92 90.05,40.79 89.8,40.57 C89.29,40.14 88.46,39.37 87.4,38.22 C85.28,35.92 82.24,32.06 79.15,26.2 C72.99,14.51 66.4,-5.51 66.85,-37.59 C67.1,-55.36 60.28,-72.5 47.9,-85.24 C35.51,-97.98 18.57,-105.28 0.8,-105.53z M62.22,35.13 C62.93,36.47 63.64,37.74 64.35,38.95 C64.35,38.95 -66.77,37.11 -66.77,37.11 C-66.03,35.93 -65.28,34.67 -64.53,33.35 C-56.29,18.74 -48.48,-4.3 -47.99,-39.2 C-47.81,-51.89 -42.6,-64 -33.5,-72.84 C-24.4,-81.69 -12.16,-86.56 0.53,-86.38 C13.22,-86.21 25.32,-80.99 34.17,-71.9 C43.02,-62.8 47.89,-50.55 47.71,-37.86 C47.23,-2.96 54.39,20.29 62.22,35.13z"></path><g opacity="1" transform="matrix(0.9999018311500549,0.014013259671628475,-0.014013259671628475,0.9999018311500549,-0.33884578943252563,0.0023632049560546875)"></g></g></g><g transform="matrix(0.9998475909233093,-0.017459223046898842,0.017459223046898842,0.9998475909233093,202.9453582763672,294.97625732421875)" opacity="1" style="display: block;"><g opacity="1" transform="matrix(1,0,0,1,0,0)"><g opacity="1" transform="matrix(0.9999018311500549,0.014013259671628475,-0.014013259671628475,0.9999018311500549,0,0)"><g opacity="1" transform="matrix(1,0,0,1,0,0)"></g><path fill="rgb(2,11,25)" fill-opacity="1" d=" M-8.279000282287598,-9.571000099182129 C-10.930999755859375,-14.142999649047852 -16.788999557495117,-15.699000358581543 -21.361000061035156,-13.04699993133545 C-25.933000564575195,-10.395000457763672 -27.48900032043457,-4.538000106811523 -24.836999893188477,0.03500000014901161 C-22.312999725341797,4.386000156402588 -18.690000534057617,7.997000217437744 -14.331000328063965,10.508000373840332 C-9.972000122070312,13.019000053405762 -5.031000137329102,14.340999603271484 0,14.340999603271484 C5.031000137329102,14.340999603271484 9.972000122070312,13.019000053405762 14.331000328063965,10.508000373840332 C18.690000534057617,7.997000217437744 22.312999725341797,4.386000156402588 24.836999893188477,0.03500000014901161 C27.48900032043457,-4.538000106811523 25.933000564575195,-10.395000457763672 21.361000061035156,-13.04699993133545 C16.788000106811523,-15.699000358581543 10.930999755859375,-14.142999649047852 8.279000282287598,-9.571000099182129 C7.438000202178955,-8.119999885559082 6.230000019073486,-6.915999889373779 4.7769999504089355,-6.078999996185303 C3.3239998817443848,-5.242000102996826 1.6770000457763672,-4.802000045776367 0,-4.802000045776367 C-1.6770000457763672,-4.802000045776367 -3.3239998817443848,-5.242000102996826 -4.7769999504089355,-6.078999996185303 C-6.230000019073486,-6.915999889373779 -7.438000202178955,-8.119999885559082 -8.279000282287598,-9.571000099182129z"></path></g></g></g></g></svg>